<?xml version="1.0" encoding="utf-8"?>
<!-- Generator: Adobe Illustrator 26.5.0, SVG Export Plug-In . SVG Version: 6.00 Build 0)  -->
<svg version="1.1" id="Layer_1" xmlns="http://www.w3.org/2000/svg" xmlns:xlink="http://www.w3.org/1999/xlink" x="0px" y="0px"
	 viewBox="0 0 1680 1440" style="enable-background:new 0 0 1680 1440;" xml:space="preserve">
<style type="text/css">
	 .st0 { fill: currentColor; }
</style>
<g>
	<g>
		<path class="st0" d="M662.92,1059.23c-93.18-66.47-178.88-135.18-271.9-191.85c-95.24-58.02-204.26-78.7-326.98-81.74
			C174.73,593.8,281.93,408.02,390.42,220c192.03,8.94,358.49,73.05,506.17,196.11C817.39,634.11,739.3,849.02,662.92,1059.23z"/>
		<path class="st0" d="M703.18,1034.88c47.77-131.99,91.55-253.04,135.39-374.08c24.51-67.66,47.06-136.14,74.85-202.42
			c8.94-21.31,28.4-43.61,48.86-53.82c150.7-75.23,309.1-87.51,472.13-49.52c15.51,3.61,30.33,10.21,50.46,17.13
			c-43.63,217.23-86.74,431.89-130.22,648.39C1135.6,980.49,922.38,920.05,703.18,1034.88z"/>
		<path class="st0" d="M765.2,1042.16c202.71-81.28,403.06-27.21,611.87,15.01c41.67-205.7,82.95-409.47,125.22-618.14
			c18.11,4.88,31.59,8.52,49.96,13.47c-45.52,224.67-90.4,446.14-136.31,672.75C1200.71,1055.04,988.49,1002.84,765.2,1042.16z"/>
		<path class="st0" d="M824.98,1074.21c210.9-31.45,409.47,20.79,612.69,89.98c44.73-218.87,88.5-433.01,133.02-650.82
			c16.1,3.38,27.12,5.7,45.28,9.52c-49.14,232.3-97.55,461.14-147.47,697.11C1256.47,1142.79,1042.65,1099.81,824.98,1074.21z"/>
		<path class="st0" d="M71.03,875.82c3.18-9.79,4.49-16.49,7.45-22.35c5.45-10.77,11.87-21.06,19.73-34.76
			c160.54,4.18,296.9,66.71,429.28,171.86c-83.92-27.66-155.4-55.78-229.28-74.29C225.27,898.01,149.88,889.44,71.03,875.82z"/>
		<path class="st0" d="M72.8,981.73c7.89-18.52,17.65-41.43,28.5-66.89c129.25,9.15,249.67,38.68,364.25,87.12
			C335.81,995.27,205.72,988.57,72.8,981.73z"/>
	</g>
	<path class="st0" d="M687,1071.75c-1.48,17.19-4.18,35.63-6.99,52.54c-0.33,12.28,1.5,22.67-1.91,34.61
		c-0.65,3.25-1.84,8.86-2.74,12.01c-0.18,0.52-0.45,1.42-0.62,1.94c-0.51,0.21,1.13-0.43-1.14,0.49c-2.28,0.91-0.65,0.24-1.16,0.44
		c0,0-0.03-0.02-0.03-0.02s-0.06-0.03-0.06-0.03c-8.99-5.32-14.64-15.21-16.68-25.22c-3.06-19.27,9.65-36.93,16.65-53.72
		c4.13-7.91,7.92-15.92,12.34-23.74L687,1071.75L687,1071.75z"/>
</g>
</svg>
