<?xml version="1.0" encoding="utf-8"?>
<!-- Generator: Adobe Illustrator 24.0.1, SVG Export Plug-In . SVG Version: 6.00 Build 0)  -->
<svg version="1.1" id="Layer_1" xmlns="http://www.w3.org/2000/svg" xmlns:xlink="http://www.w3.org/1999/xlink" x="0px" y="0px"
	 viewBox="0 0 1680 1440" style="enable-background:new 0 0 1680 1440;" xml:space="preserve">
<style type="text/css">
	.st0{fill:#FFFFFF;stroke:#FFFFFF;stroke-miterlimit:10;}
</style>
<rect width="1680" height="1440"/>
<g>
	<g>
		<path class="st0" d="M662.9,1059.2C569.7,992.8,484,924,391,867.4c-95.2-58-204.3-78.7-327-81.7C174.7,593.8,281.9,408,390.4,220
			c192,8.9,358.5,73.1,506.2,196.1C817.4,634.1,739.3,849,662.9,1059.2z"/>
		<path class="st0" d="M703.2,1034.9c47.8-132,91.5-253,135.4-374.1c24.5-67.7,47.1-136.1,74.8-202.4c8.9-21.3,28.4-43.6,48.9-53.8
			c150.7-75.2,309.1-87.5,472.1-49.5c15.5,3.6,30.3,10.2,50.5,17.1c-43.6,217.2-86.7,431.9-130.2,648.4
			C1135.6,980.5,922.4,920,703.2,1034.9z"/>
		<path class="st0" d="M765.2,1042.2c202.7-81.3,403.1-27.2,611.9,15c41.7-205.7,82.9-409.5,125.2-618.1c18.1,4.9,31.6,8.5,50,13.5
			c-45.5,224.7-90.4,446.1-136.3,672.8C1200.7,1055,988.5,1002.8,765.2,1042.2z"/>
		<path class="st0" d="M825,1074.2c210.9-31.4,409.5,20.8,612.7,90c44.7-218.9,88.5-433,133-650.8c16.1,3.4,27.1,5.7,45.3,9.5
			c-49.1,232.3-97.6,461.1-147.5,697.1C1256.5,1142.8,1042.7,1099.8,825,1074.2z"/>
		<path class="st0" d="M71,875.8c3.2-9.8,4.5-16.5,7.4-22.3c5.4-10.8,11.9-21.1,19.7-34.8c160.5,4.2,296.9,66.7,429.3,171.9
			c-83.9-27.7-155.4-55.8-229.3-74.3C225.3,898,149.9,889.4,71,875.8z"/>
		<path class="st0" d="M72.8,981.7c7.9-18.5,17.7-41.4,28.5-66.9C230.6,924,351,953.5,465.5,1002
			C335.8,995.3,205.7,988.6,72.8,981.7z"/>
	</g>
	<path class="st0" d="M687,1071.8c-1.5,17.2-4.2,35.6-7,52.5c-0.3,12.3,1.5,22.7-1.9,34.6c-0.7,3.2-1.8,8.9-2.7,12
		c-0.2,0.5-0.5,1.4-0.6,1.9c-0.5,0.2,1.1-0.4-1.1,0.5c-2.3,0.9-0.7,0.2-1.2,0.4l0,0l-0.1,0c-9-5.3-14.6-15.2-16.7-25.2
		c-3.1-19.3,9.7-36.9,16.7-53.7c4.1-7.9,7.9-15.9,12.3-23.7L687,1071.8L687,1071.8z"/>
</g>
</svg>
