<?xml version="1.0" encoding="utf-8"?>
<!-- Generator: Adobe Illustrator 26.5.0, SVG Export Plug-In . SVG Version: 6.00 Build 0)  -->
<svg version="1.1" id="Layer_1" xmlns="http://www.w3.org/2000/svg" xmlns:xlink="http://www.w3.org/1999/xlink" x="0px" y="0px"
	 viewBox="0 0 1520 1520" style="enable-background:new 0 0 1520 1520;" xml:space="preserve">
<style type="text/css">
	.st0{font-family:'Poppins-SemiBold';}
	.st1{font-size:72px;}
</style>
<g>
	<g>
		<path d="M645.9,978.2c-60-42.8-115.3-87.1-175.2-123.6c-61.4-37.4-131.6-50.7-210.7-52.7c71.3-123.6,140.4-243.3,210.3-364.5
			c123.7,5.8,231,47.1,326.2,126.4C745.4,704.3,695.1,842.8,645.9,978.2z"/>
		<path d="M671.8,962.5c30.8-85,59-163,87.2-241c15.8-43.6,30.3-87.7,48.2-130.4c5.8-13.7,18.3-28.1,31.5-34.7
			c97.1-48.5,199.2-56.4,304.2-31.9c10,2.3,19.5,6.6,32.5,11c-28.1,140-55.9,278.3-83.9,417.8C950.5,927.5,813.1,888.5,671.8,962.5z
			"/>
		<path d="M711.8,967.2c130.6-52.4,259.7-17.5,394.3,9.7c26.9-132.5,53.4-263.8,80.7-398.3c11.7,3.1,20.4,5.5,32.2,8.7
			c-29.3,144.8-58.2,287.5-87.8,433.5C992.4,975.5,855.7,941.9,711.8,967.2z"/>
		<path d="M750.3,987.9c135.9-20.3,263.8,13.4,394.8,58c28.8-141,57-279,85.7-419.4c10.4,2.2,17.5,3.7,29.2,6.1
			c-31.7,149.7-62.9,297.1-95,449.2C1028.4,1032.1,890.6,1004.4,750.3,987.9z"/>
		<path d="M264.5,860c2-6.3,2.9-10.6,4.8-14.4c3.5-6.9,7.6-13.6,12.7-22.4c103.4,2.7,191.3,43,276.6,110.7
			c-54.1-17.8-100.1-35.9-147.7-47.9C363.9,874.3,315.3,868.8,264.5,860z"/>
		<path d="M265.6,928.3c5.1-11.9,11.4-26.7,18.4-43.1c83.3,5.9,160.9,24.9,234.7,56.1C435.1,937,351.3,932.7,265.6,928.3z"/>
	</g>
	<path d="M661.4,986.3c-1,11.1-2.7,23-4.5,33.9c-0.2,7.9,1,14.6-1.2,22.3c-0.4,2.1-1.2,5.7-1.8,7.7c-0.1,0.3-0.3,0.9-0.4,1.3
		c-0.3,0.1,0.7-0.3-0.7,0.3c-1.5,0.6-0.4,0.2-0.7,0.3l0,0l0,0c-5.8-3.4-9.4-9.8-10.7-16.3c-2-12.4,6.2-23.8,10.7-34.6
		c2.7-5.1,5.1-10.3,8-15.3L661.4,986.3L661.4,986.3z"/>
</g>
<text transform="matrix(1 0 0 1 1073.3204 478.6729)" class="st0 st1">BETA</text>
</svg>
