<?xml version="1.0" encoding="utf-8"?>
<!-- Generator: Adobe Illustrator 26.5.0, SVG Export Plug-In . SVG Version: 6.00 Build 0)  -->
<svg version="1.1" id="Layer_1" xmlns="http://www.w3.org/2000/svg" xmlns:xlink="http://www.w3.org/1999/xlink" x="0px" y="0px"
	 viewBox="0 0 1024 1024" style="enable-background:new 0 0 1024 1024;" xml:space="preserve">
<style type="text/css">
	.st0{font-family:'Poppins-SemiBold';}
	.st1{font-size:48.5053px;}
</style>
<g>
	<g>
		<path d="M435.1,659c-40.4-28.9-77.7-58.7-118-83.3c-41.3-25.2-88.7-34.2-141.9-35.5c48-83.3,94.6-163.9,141.7-245.5
			c83.4,3.9,155.6,31.7,219.7,85.1C502.2,474.5,468.3,567.8,435.1,659z"/>
		<path d="M452.6,648.4c20.7-57.3,39.7-109.8,58.8-162.4c10.6-29.4,20.4-59.1,32.5-87.9c3.9-9.3,12.3-18.9,21.2-23.4
			c65.4-32.7,134.2-38,204.9-21.5c6.7,1.6,13.2,4.4,21.9,7.4c-18.9,94.3-37.7,187.5-56.5,281.5C640.3,624.8,547.8,598.6,452.6,648.4
			z"/>
		<path d="M479.5,651.6c88-35.3,175-11.8,265.6,6.5c18.1-89.3,36-177.7,54.4-268.3c7.9,2.1,13.7,3.7,21.7,5.8
			c-19.8,97.5-39.2,193.7-59.2,292C668.6,657.2,576.5,634.5,479.5,651.6z"/>
		<path d="M505.5,665.5c91.6-13.7,177.7,9,266,39.1c19.4-95,38.4-188,57.7-282.5c7,1.5,11.8,2.5,19.7,4.1
			c-21.3,100.8-42.3,200.2-64,302.6C692.8,695.3,600,676.6,505.5,665.5z"/>
		<path d="M178.2,579.4c1.4-4.2,1.9-7.2,3.2-9.7c2.4-4.7,5.2-9.1,8.6-15.1c69.7,1.8,128.9,29,186.3,74.6
			c-36.4-12-67.5-24.2-99.5-32.2C245.1,589,212.4,585.3,178.2,579.4z"/>
		<path d="M179,625.4c3.4-8,7.7-18,12.4-29c56.1,4,108.4,16.8,158.1,37.8C293.1,631.2,236.7,628.3,179,625.4z"/>
	</g>
	<path d="M445.6,664.4c-0.6,7.5-1.8,15.5-3,22.8c-0.1,5.3,0.7,9.8-0.8,15c-0.3,1.4-0.8,3.8-1.2,5.2c-0.1,0.2-0.2,0.6-0.3,0.8
		c-0.2,0.1,0.5-0.2-0.5,0.2c-1,0.4-0.3,0.1-0.5,0.2l0,0l0,0c-3.9-2.3-6.4-6.6-7.2-10.9c-1.3-8.4,4.2-16,7.2-23.3
		c1.8-3.4,3.4-6.9,5.4-10.3L445.6,664.4L445.6,664.4z"/>
</g>
<text transform="matrix(1 0 0 1 723.0791 322.4748)" class="st0 st1">BETA</text>
</svg>
